<svg version="1.0" xmlns="http://www.w3.org/2000/svg"
 width="512.000000pt" height="512.000000pt" viewBox="0 0 512.000000 512.000000"
 preserveAspectRatio="xMidYMid meet">

<g transform="translate(0.000000,512.000000) scale(0.100000,-0.100000)"
fill="yellow" stroke="none">
<path d="M250 3702 c-38 -39 -43 -89 -38 -390 l4 -247 103 -204 102 -203 -107
-368 c-71 -244 -105 -377 -100 -393 10 -40 38 -67 81 -77 58 -14 4479 -13
4527 0 46 13 78 52 78 97 0 18 -45 191 -100 384 l-101 351 75 151 c135 274
126 234 126 574 l0 295 -29 29 -29 29 -404 0 c-235 0 -421 -5 -447 -11 -68
-15 -140 -54 -219 -117 -40 -33 -90 -64 -111 -71 -28 -8 -332 -11 -1107 -11
l-1069 0 -50 24 c-27 13 -75 45 -105 70 -61 52 -135 90 -201 105 -26 6 -212
11 -447 11 l-404 0 -28 -28z m1731 -635 c48 -24 103 -79 125 -126 26 -53 30
-152 9 -207 -21 -55 -63 -105 -113 -135 -20 -13 -39 -24 -41 -26 -3 -2 35 -43
82 -92 83 -84 87 -91 87 -132 -1 -67 -44 -109 -111 -109 -28 0 -50 18 -171
137 l-138 137 0 -87 c0 -103 -16 -149 -59 -171 -40 -21 -69 -20 -108 4 -51 31
-55 57 -51 433 l3 339 33 29 34 30 191 -3 c161 -3 198 -6 228 -21z m652 3 c21
-16 46 -82 136 -353 61 -182 111 -342 111 -355 0 -57 -46 -101 -105 -102 -47
0 -79 19 -100 61 -16 29 -16 29 -110 29 -94 0 -94 0 -110 -29 -21 -42 -53 -61
-101 -61 -48 0 -89 31 -100 76 -10 39 208 697 242 731 30 30 100 32 137 3z
m524 -4 c15 -13 55 -78 88 -145 l59 -121 63 123 c70 138 96 167 151 167 44 0
76 -20 97 -60 22 -42 22 -673 1 -725 -15 -35 -59 -65 -96 -65 -37 0 -81 30
-96 65 -8 21 -14 69 -14 124 l0 89 -34 -34 c-24 -24 -43 -34 -66 -34 -39 0
-87 27 -98 55 -4 12 -9 -25 -12 -92 -5 -100 -7 -114 -29 -137 -48 -51 -142
-40 -170 20 -7 17 -11 140 -11 380 l0 356 29 29 c38 38 96 40 138 5z"/>
<path d="M1710 2825 l0 -55 83 0 c92 0 127 15 127 54 0 43 -28 56 -123 56
l-87 0 0 -55z"/>
<path d="M2543 2595 c-11 -34 -11 -35 17 -35 28 0 28 1 17 35 -6 19 -13 35
-17 35 -4 0 -11 -16 -17 -35z"/>
</g>
</svg>